<svg width="24" height="25" viewBox="0 0 24 25" fill="none" xmlns="http://www.w3.org/2000/svg">
<mask id="mask0_271_920" style="mask-type:alpha" maskUnits="userSpaceOnUse" x="0" y="0" width="24" height="25">
<rect y="0.5" width="24" height="24" fill="#D9D9D9"/>
</mask>
<g mask="url(#mask0_271_920)">
<path d="M5 21.5C4.45 21.5 3.97917 21.3042 3.5875 20.9125C3.19583 20.5208 3 20.05 3 19.5V9.5C3 8.95 3.19583 8.47917 3.5875 8.0875C3.97917 7.69583 4.45 7.5 5 7.5H9V9.5H5V19.5H19V9.5H15V7.5H19C19.55 7.5 20.0208 7.69583 20.4125 8.0875C20.8042 8.47917 21 8.95 21 9.5V19.5C21 20.05 20.8042 20.5208 20.4125 20.9125C20.0208 21.3042 19.55 21.5 19 21.5H5ZM12 16.5L8 12.5L9.4 11.1L11 12.675V0.5H13V12.675L14.6 11.1L16 12.5L12 16.5Z" fill="#131E4D"/>
</g>
</svg>
