<svg width="480" height="480" viewBox="0 0 480 480" fill="none" xmlns="http://www.w3.org/2000/svg">
<mask id="mask0_271_980" style="mask-type:alpha" maskUnits="userSpaceOnUse" x="0" y="0" width="480" height="480">
<rect width="480" height="480" fill="#D9D9D9"/>
</mask>
<g mask="url(#mask0_271_980)">
<path d="M150 330L290 290L330 150L190 190L150 330ZM240 270C231.667 270 224.583 267.083 218.75 261.25C212.917 255.417 210 248.333 210 240C210 231.667 212.917 224.583 218.75 218.75C224.583 212.917 231.667 210 240 210C248.333 210 255.417 212.917 261.25 218.75C267.083 224.583 270 231.667 270 240C270 248.333 267.083 255.417 261.25 261.25C255.417 267.083 248.333 270 240 270ZM240 440C212.333 440 186.333 434.75 162 424.25C137.667 413.75 116.5 399.5 98.5 381.5C80.5 363.5 66.25 342.333 55.75 318C45.25 293.667 40 267.667 40 240C40 212.333 45.25 186.333 55.75 162C66.25 137.667 80.5 116.5 98.5 98.5C116.5 80.5 137.667 66.25 162 55.75C186.333 45.25 212.333 40 240 40C267.667 40 293.667 45.25 318 55.75C342.333 66.25 363.5 80.5 381.5 98.5C399.5 116.5 413.75 137.667 424.25 162C434.75 186.333 440 212.333 440 240C440 267.667 434.75 293.667 424.25 318C413.75 342.333 399.5 363.5 381.5 381.5C363.5 399.5 342.333 413.75 318 424.25C293.667 434.75 267.667 440 240 440ZM240 400C284.333 400 322.083 384.417 353.25 353.25C384.417 322.083 400 284.333 400 240C400 195.667 384.417 157.917 353.25 126.75C322.083 95.5833 284.333 80 240 80C195.667 80 157.917 95.5833 126.75 126.75C95.5833 157.917 80 195.667 80 240C80 284.333 95.5833 322.083 126.75 353.25C157.917 384.417 195.667 400 240 400Z" fill="#F9FBFF"/>
</g>
</svg>
