<svg width="489" height="812" viewBox="0 0 489 812" fill="none" xmlns="http://www.w3.org/2000/svg">
<path d="M164 652H243.5C287.407 652 323 687.593 323 731.5C323 775.407 287.407 811 243.5 811H164V652Z" fill="#89B0FF"/>
<rect x="329" y="489" width="159" height="159" rx="79.5" fill="#FF70B7"/>
<path d="M164 326H243.5C287.407 326 323 361.593 323 405.5C323 449.407 287.407 485 243.5 485C199.593 485 164 449.407 164 405.5V326Z" fill="#E8F2FE"/>
<rect y="163" width="159" height="159" rx="79.5" fill="#F9FBFF"/>
<path d="M488 79.5C488 123.407 452.407 159 408.5 159H329V0H488V79.5Z" fill="#928CFA"/>
<path d="M329 242.5C329 198.593 364.593 163 408.5 163C452.407 163 488 198.593 488 242.5V322H329V242.5Z" fill="#89B0FF"/>
<rect y="652" width="159" height="159" rx="79.5" fill="#FF70B7"/>
<path d="M323 212.92L310.135 190.527L255.192 222.15L242.062 160L216.823 165.334L229.916 227.333L166.724 220.599L164 246.284L227.04 252.979L201.12 310.969L224.694 321.485L250.538 263.647L297.686 306.202L314.978 287.062L267.944 244.582L323 212.92Z" fill="#FF70B7"/>
<path d="M436.08 812L458.473 799.135L426.85 744.192L489 731.062L483.666 705.823L421.667 718.916L428.401 655.724L402.716 653L396.021 716.04L338.031 690.12L327.515 713.694L385.353 739.538L342.798 786.686L361.938 803.978L404.418 756.944L436.08 812Z" fill="#E8F2FE"/>
</svg>
