<svg width="73" height="16" viewBox="0 0 73 16" fill="none" xmlns="http://www.w3.org/2000/svg">
<path d="M7.3828 13.8315C6.88248 14.0306 6.31994 14.1301 5.69516 14.1301C5.12515 14.1301 4.585 14.0405 4.07722 13.8614C3.56943 13.6822 3.13881 13.4334 2.78784 13.1149C2.43687 12.7964 2.19791 12.438 2.07097 12.0399L0 12.0399C0.119479 12.764 0.440579 13.411 0.965788 13.9858C1.491 14.5606 2.15809 15.0085 2.97204 15.3345C3.78599 15.6605 4.66715 15.8222 5.61551 15.8222C6.61863 15.8222 7.51473 15.6505 8.30378 15.3046C9.09284 14.9588 9.71264 14.476 10.1607 13.8564C10.6087 13.2368 10.8328 12.5301 10.8328 11.7413C10.8328 10.838 10.5316 10.0915 9.93169 9.49679C9.3318 8.90207 8.43571 8.47656 7.24839 8.21777L4.30124 7.58075C3.53707 7.41403 2.96457 7.14529 2.58373 6.76954C2.20289 6.3938 2.01123 5.92848 2.01123 5.37108C2.01123 4.90078 2.13818 4.48274 2.38958 4.11695C2.64098 3.75116 2.99195 3.46748 3.44 3.26593C3.88804 3.06437 4.39334 2.96235 4.95838 2.96235C5.52341 2.96235 6.09094 3.06935 6.60121 3.28086C7.11149 3.49237 7.53962 3.786 7.88063 4.15676C8.22164 4.52753 8.44318 4.94557 8.54274 5.4109H10.6535C10.5614 4.62706 10.2553 3.92286 9.73753 3.29579C9.21979 2.66872 8.54523 2.17851 7.71635 1.82268C6.88746 1.46684 5.98141 1.29017 4.9982 1.29017C4.11456 1.29017 3.30558 1.45689 2.5688 1.79281C1.83201 2.12874 1.24955 2.60153 0.821418 3.21616C0.393285 3.83079 0.179219 4.54246 0.179219 5.35118C0.179219 6.27436 0.480405 7.0358 1.08029 7.64047C1.68017 8.24514 2.57626 8.67563 3.76359 8.93442L6.71073 9.57144C7.45499 9.7307 8.01753 9.99695 8.40335 10.3727C8.78917 10.7484 8.98083 11.2038 8.98083 11.7413C8.98083 12.2116 8.83895 12.6296 8.55768 12.9905C8.2764 13.3513 7.88312 13.6325 7.3828 13.8315Z" fill="#F9FBFF"/>
<path d="M19.5348 5.57015L14.2379 10.0393C14.3375 9.38979 14.4221 8.49647 14.4918 7.36177C14.5615 6.22708 14.5963 5.12474 14.5963 4.05723V-0.00378418H12.7245V15.5236H14.3574V10.7758L19.6742 15.5236H22.0638L16.3089 10.3578L22.0638 5.57015H19.5348Z" fill="#F9FBFF"/>
<path d="M25.0906 5.57016H23.1789V15.5236H25.0906V5.57016Z" fill="#F9FBFF"/>
<path d="M24.1347 1.52904C23.8485 1.52904 23.6095 1.62609 23.4129 1.81769C23.2162 2.0093 23.1192 2.25316 23.1192 2.54429C23.1192 2.83543 23.2162 3.06934 23.4129 3.26592C23.6095 3.4625 23.8485 3.55955 24.1347 3.55955C24.421 3.55955 24.6699 3.4625 24.8616 3.26592C25.0532 3.06934 25.1503 2.83046 25.1503 2.54429C25.1503 2.25813 25.0532 2.0093 24.8616 1.81769C24.6699 1.62609 24.426 1.52904 24.1347 1.52904Z" fill="#F9FBFF"/>
<path d="M29.4715 -0.00378418H27.6395V15.5236H29.4715V-0.00378418Z" fill="#F9FBFF"/>
<path d="M33.8524 -0.00378418H32.0204V15.5236H33.8524V-0.00378418Z" fill="#F9FBFF"/>
<path d="M45.407 2.45971C44.1549 1.87992 42.7137 1.58878 41.0808 1.58878H36.6004V15.5236H41.5986C43.1319 15.5236 44.4835 15.2325 45.6559 14.6527C46.8283 14.0729 47.7343 13.2567 48.379 12.2041C49.0237 11.1516 49.3448 9.93725 49.3448 8.5562C49.3448 7.17516 49.0013 5.96084 48.3143 4.90826C47.6273 3.85568 46.659 3.0395 45.407 2.45971ZM46.6167 11.2436C46.1388 12.0598 45.4667 12.6919 44.6005 13.1398C43.7343 13.5877 42.7336 13.8116 41.5986 13.8116H38.5718V3.02208H41.0012C42.2557 3.02208 43.3634 3.24603 44.3217 3.69394C45.28 4.14184 46.0218 4.77389 46.547 5.59007C47.0722 6.40626 47.3336 7.34935 47.3336 8.41685C47.3336 9.48436 47.0946 10.4275 46.6167 11.2436Z" fill="#F9FBFF"/>
<path d="M58.5098 5.95835C57.7158 5.50049 56.8247 5.27156 55.8365 5.27156C54.8483 5.27156 53.9472 5.50049 53.1582 5.95835C52.3691 6.4162 51.7518 7.04576 51.3063 7.8495C50.8607 8.65324 50.6392 9.55155 50.6392 10.5469C50.6392 11.5422 50.8682 12.4903 51.3262 13.2891C51.7842 14.0878 52.4189 14.7099 53.2279 15.1553C54.0369 15.6008 54.9529 15.8222 55.9759 15.8222C56.7923 15.8222 57.5515 15.6679 58.256 15.3594C58.9604 15.0508 59.5428 14.6228 60.0033 14.0754C60.4638 13.528 60.7625 12.9083 60.8944 12.2191H59.401C59.2616 12.6297 59.0301 12.9954 58.709 13.314C58.3879 13.6325 57.9996 13.8813 57.5441 14.0605C57.0885 14.2396 56.6007 14.3292 56.0755 14.3292C55.4059 14.3292 54.8035 14.1899 54.2683 13.9112C53.7332 13.6325 53.3001 13.2418 52.969 12.7416C52.638 12.2415 52.4388 11.6691 52.3716 11.0247H61.0338C61.0463 10.9326 61.0537 10.7858 61.0537 10.5867C61.0537 9.57892 60.8272 8.66817 60.3767 7.85946C59.9262 7.05074 59.3039 6.4162 58.5098 5.95835ZM52.4314 9.75061C52.5384 9.20566 52.7475 8.72292 53.0636 8.29741C53.3797 7.8719 53.773 7.54095 54.2484 7.30206C54.7239 7.06318 55.2466 6.94374 55.8166 6.94374C56.3866 6.94374 56.8994 7.06069 57.3748 7.29709C57.8502 7.53348 58.2435 7.86195 58.5547 8.28746C58.8658 8.71297 59.0724 9.20069 59.172 9.75061H52.4314Z" fill="#F9FBFF"/>
<path d="M72.8 8.86226L71.9537 7.38915L68.3395 9.46942L67.4757 5.38104L65.8155 5.7319L66.6767 9.81033L62.5198 9.3674L62.3406 11.057L66.4875 11.4974L64.7825 15.3121L66.3332 16.0039L68.0333 12.1992L71.1348 14.9986L72.2723 13.7395L69.1783 10.945L72.8 8.86226Z" fill="#F9FBFF"/>
</svg>
