<svg width="375" height="180" viewBox="0 0 375 180" fill="none" xmlns="http://www.w3.org/2000/svg">
<rect x="1.01147" y="59" width="313.71" height="53.5451" rx="9.83482" transform="rotate(1.08239 1.01147 59)" fill="#7F67D5"/>
<path d="M27.811 94.62C25.9493 94.5849 24.9454 93.5691 24.9821 91.6287L25.1713 81.6121C25.2303 78.4918 26.5251 76.6014 28.6981 75.4358L22.9031 75.3263L22.9398 73.3859L31.1471 73.541L31.1094 75.5338C28.4927 76.5861 27.6897 78.8268 27.6362 81.6587L27.4514 91.4393C27.437 92.1997 27.7719 92.5208 28.3488 92.5317C28.8208 92.5407 29.1647 92.3898 29.4308 92.185L29.9473 94.0046C29.4159 94.3618 28.7812 94.6384 27.811 94.62ZM39.4754 94.788C37.1679 94.7444 35.3844 93.3467 34.4667 91.9391L34.4191 94.4564L32.0592 94.4118L32.3178 80.7241L34.7826 80.7707L34.6058 90.1318C35.3691 91.3791 36.8682 92.5615 38.4939 92.5923C40.1983 92.6245 41.262 91.8576 41.3046 89.6026L41.4691 80.897L43.9339 80.9436L43.7546 90.4358C43.7001 93.3202 42.0713 94.837 39.4754 94.788ZM41.5051 78.773L41.5829 74.6563L44.0477 74.7028L43.97 78.8196L41.5051 78.773ZM52.1873 95.1068C49.8011 95.0618 47.7722 94.1578 46.4587 92.8739L47.6733 91.0607C48.6504 92.1022 50.4166 93.0274 52.2783 93.0625C54.2974 93.1007 55.2315 92.2527 55.2518 91.1776C55.2761 89.8928 53.9215 89.395 51.7545 88.8557C49.1438 88.2031 46.9842 87.2704 47.0313 84.7794C47.0754 82.4457 49.1014 80.7265 52.3267 80.7874C54.5555 80.8295 56.2707 81.6751 57.4294 82.8249L56.2944 84.5872C55.4742 83.5749 53.9657 82.8906 52.3137 82.8594C50.6356 82.8277 49.4956 83.4619 49.4753 84.537C49.4535 85.6908 50.7562 86.1613 52.8702 86.7259C55.1411 87.3196 57.7222 88.1553 57.6682 91.0134C57.6246 93.3209 55.8058 95.1752 52.1873 95.1068ZM53.2162 101.605C50.9874 101.563 49.754 100.202 49.7872 98.4453L49.7897 98.3142L48.6621 98.2929L48.6943 96.5885L52.0769 96.6524L52.0437 98.4092C52.0298 99.1434 52.4657 99.6763 53.2523 99.6911C54.0128 99.7055 54.4684 99.1895 54.4823 98.4553L54.5155 96.6984L56.8492 96.7425L56.8145 98.578C56.7809 100.361 55.3926 101.646 53.2162 101.605ZM53.3232 79.0225L53.3677 76.6626L51.6109 76.6294L51.6426 74.9512L55.5496 75.0251L55.506 77.3325L58.4166 77.3875L58.3839 79.1182L53.3232 79.0225ZM64.5894 95.3412C62.0984 95.2941 60.3119 94.0537 59.4699 92.805L61.2267 91.4479C62.0183 92.5908 63.1869 93.2162 64.4979 93.241C66.9103 93.2865 68.5223 91.271 68.5797 88.2293C68.6372 85.1876 67.0753 83.1645 64.5581 83.117C63.2208 83.0917 62.0042 83.6196 61.1695 84.758L59.5176 83.3365C60.4319 82.1472 62.2115 80.9742 64.755 81.0222C68.7407 81.0975 71.1753 84.1338 71.0965 88.3031C71.0177 92.4723 68.5226 95.4155 64.5894 95.3412ZM68.2388 79.2781L68.3166 75.1613L70.7814 75.2079L70.7036 79.3247L68.2388 79.2781ZM78.176 85.5777C78.2062 83.9781 77.2746 83.3048 76.0422 83.2815C74.836 83.2587 73.8802 83.8702 73.3186 84.4367L72.1961 82.7629C73.1579 81.8368 74.6387 81.209 76.3693 81.2417C78.5719 81.2833 80.7052 82.2154 80.6418 85.5718L80.4575 95.3262L77.9927 95.2796L78.176 85.5777ZM88.9319 95.7748C85.8115 95.7159 83.4759 92.9962 83.5586 88.6172C83.6166 85.5493 84.8476 82.8708 86.6524 81.7507L88.4879 81.7854L90.597 84.0024L92.8407 81.8676L93.6011 81.882C95.8562 81.9246 96.6923 83.488 96.6551 85.4546L96.4629 95.6286L93.9981 95.582L94.1898 85.4343C94.2061 84.569 93.9276 84.0391 93.2751 83.8694L91.0561 86.0833L90.0072 86.0635L87.7972 83.6347C86.7558 84.6118 86.0675 86.3301 86.0264 88.5065C85.964 91.8104 87.3972 93.6998 89.2852 93.7355C89.862 93.7464 90.3375 93.5718 90.6828 93.3422L91.4902 95.0362C90.8782 95.4968 90.007 95.7951 88.9319 95.7748ZM92.425 79.7613L92.4695 77.4014L90.7127 77.3682L90.7444 75.69L94.6514 75.7638L94.6078 78.0713L97.5184 78.1263L97.4857 79.8569L92.425 79.7613ZM105.697 96.1178C103.416 96.0747 101.363 95.0392 100.047 93.8864L100.159 87.9603L106.112 88.0728L106.076 89.9607L102.484 89.8929L102.428 92.8297C103.15 93.4729 104.399 94.0211 105.736 94.0463C108.437 94.0974 110.022 92.1337 110.081 88.9872C110.138 85.9979 108.524 83.9477 105.745 83.8951C103.962 83.8614 102.189 84.6411 100.984 85.9561L99.6543 84.1473C101.232 82.577 103.503 81.7543 105.837 81.7984C110.058 81.8782 112.679 84.8131 112.599 89.0347C112.518 93.3088 109.735 96.1941 105.697 96.1178ZM118.818 96.0509L114.147 82.2702L116.717 82.3187L120.665 94.0661C122.927 92.3776 124.443 89.8618 124.488 87.4757C124.531 85.2206 123.266 84.1737 121.85 84.147C121.22 84.1351 120.43 84.33 119.899 84.6609L119.199 82.8116C119.97 82.3015 121.075 82.0863 122.072 82.1051C124.563 82.1522 127.078 83.6949 127.007 87.4446C126.933 91.3778 123.937 94.4689 121.729 96.1059L118.818 96.0509ZM133.227 96.6117C131.365 96.5765 130.335 95.5603 130.372 93.6199L130.58 82.5807L133.045 82.6272L132.841 93.4305C132.827 94.1909 133.188 94.5125 133.765 94.5234C134.237 94.5323 134.58 94.3814 134.847 94.1766L135.363 95.9963C134.832 96.3535 134.197 96.6301 133.227 96.6117ZM142.144 96.8064C139.758 96.7614 137.729 95.8574 136.416 94.5735L137.63 92.7603C138.608 93.8018 140.374 94.727 142.236 94.7622C144.255 94.8003 145.189 93.9523 145.209 92.8772C145.233 91.5924 143.879 91.0946 141.712 90.5553C139.101 89.9027 136.941 88.97 136.988 86.479C137.033 84.1453 139.059 82.4261 142.284 82.487C144.513 82.5291 146.228 83.3747 147.387 84.5245L146.252 86.2868C145.431 85.2745 143.923 84.5902 142.271 84.559C140.593 84.5273 139.453 85.1615 139.433 86.2366C139.411 87.3904 140.713 87.8609 142.827 88.4255C145.098 89.0192 147.679 89.8549 147.625 92.7131C147.582 95.0205 145.763 96.8748 142.144 96.8064ZM136.462 80.6196L136.5 78.6005L144.917 78.7595L144.953 76.8716L147.418 76.9182L147.344 80.8252L136.462 80.6196ZM155.91 97.0927C151.845 97.016 150.074 94.9627 150.118 92.629C150.15 90.9508 151.14 89.8941 152.487 89.4473C151.129 89.1069 150.075 87.9853 150.106 86.3596C150.147 84.1832 151.827 82.6936 154.109 82.7367C155.236 82.758 156.331 83.1459 156.95 83.656L156.027 85.3435C155.768 85.1288 155.197 84.8032 154.49 84.7899C153.467 84.7705 152.589 85.4097 152.566 86.6421C152.545 87.7434 153.446 88.6523 155.229 88.686L157.065 88.7207L157.03 90.5562L155.194 90.5215C153.306 90.4858 152.608 91.3645 152.587 92.492C152.557 94.0391 153.982 95.0103 156.053 95.0494C158.282 95.0916 159.639 94.0942 159.676 92.1013L159.846 83.1336L162.31 83.1802L162.144 92.0168C162.075 95.6354 159.502 97.1606 155.91 97.0927ZM169.967 97.2534C167.371 97.2044 165.8 95.6271 165.855 92.7427L166.034 83.2505L168.499 83.2971L168.334 92.0026C168.292 94.2577 169.326 95.0641 171.03 95.0963C172.656 95.1271 174.199 94.002 175.009 92.7845L175.185 83.4234L177.65 83.47L177.392 97.1576L175.006 97.1125L175.053 94.6215C174.056 95.9929 172.248 97.2965 169.967 97.2534ZM186.035 97.6357C183.649 97.5906 181.62 96.6866 180.306 95.4027L181.521 93.5895C182.498 94.631 184.264 95.5562 186.126 95.5914C188.145 95.6295 189.079 94.7816 189.099 93.7065C189.124 92.4216 187.769 91.9239 185.602 91.3846C182.991 90.7319 180.832 89.7993 180.879 87.3082C180.923 84.9745 182.949 83.2553 186.174 83.3163C188.403 83.3584 190.118 84.2039 191.277 85.3538L190.142 87.116C189.322 86.1037 187.813 85.4195 186.161 85.3883C184.483 85.3565 183.343 85.9908 183.323 87.0659C183.301 88.2196 184.604 88.6901 186.718 89.2547C188.989 89.8485 191.57 90.6841 191.516 93.5423C191.472 95.8498 189.653 97.704 186.035 97.6357ZM187.064 104.134C184.835 104.092 183.601 102.731 183.635 100.974L183.637 100.843L182.51 100.822L182.542 99.1173L185.924 99.1812L185.891 100.938C185.877 101.672 186.313 102.205 187.1 102.22C187.86 102.234 188.316 101.718 188.33 100.984L188.363 99.2273L190.697 99.2714L190.662 101.107C190.628 102.89 189.24 104.175 187.064 104.134ZM187.171 81.5514L187.215 79.1915L185.458 79.1583L185.49 77.4801L189.397 77.5539L189.353 79.8614L192.264 79.9164L192.231 81.647L187.171 81.5514ZM199.905 97.8977C197.624 97.8546 195.571 96.8191 194.255 95.6663L194.367 89.7402L200.32 89.8527L200.284 91.7406L196.692 91.6728L196.636 94.6096C197.358 95.2528 198.607 95.801 199.944 95.8262C202.645 95.8773 204.23 93.9137 204.289 90.7671C204.346 87.7778 202.732 85.7276 199.953 85.6751C198.17 85.6414 196.397 86.421 195.192 87.736L193.862 85.9272C195.44 84.3569 197.711 83.5342 200.045 83.5783C204.266 83.6581 206.886 86.593 206.807 90.8146C206.726 95.0888 203.943 97.974 199.905 97.8977ZM212.847 89.0402C210.461 88.9951 209.429 88.1099 209.471 85.8811L209.486 85.0945L211.793 85.1381L211.78 85.846C211.765 86.6327 212.125 87.0329 213.095 87.0513L216.084 87.1078L216.046 89.1006L212.847 89.0402ZM212.486 97.0337C210.258 96.9916 209.277 96.1337 209.32 93.8787L209.334 93.092L211.642 93.1356L211.629 93.8436C211.614 94.6303 211.973 95.0567 212.943 95.0751L215.932 95.1315L215.895 97.0982L212.486 97.0337ZM222.501 98.2984C220.639 98.2632 219.635 97.2475 219.672 95.3071L219.861 85.2905C219.92 82.1701 221.215 80.2797 223.388 79.1142L217.593 79.0047L217.629 77.0643L225.837 77.2194L225.799 79.2122C223.182 80.2645 222.379 82.5051 222.326 85.3371L222.141 95.1177C222.127 95.8781 222.462 96.1992 223.038 96.2101C223.51 96.219 223.854 96.0681 224.12 95.8633L224.637 97.683C224.105 98.0402 223.471 98.3167 222.501 98.2984ZM231.41 98.493C229.024 98.4479 226.995 97.5439 225.682 96.26L226.896 94.4468C227.873 95.4883 229.64 96.4135 231.501 96.4487C233.52 96.4868 234.454 95.6389 234.475 94.5638C234.499 93.2789 233.144 92.7812 230.977 92.2419C228.367 91.5892 226.207 90.6566 226.254 88.1655C226.298 85.8318 228.324 84.1126 231.55 84.1736C233.778 84.2157 235.494 85.0612 236.652 86.2111L235.517 87.9733C234.697 86.961 233.189 86.2768 231.537 86.2456C229.859 86.2138 228.719 86.8481 228.698 87.9232C228.677 89.0769 229.979 89.5474 232.093 90.112C234.364 90.7058 236.945 91.5415 236.891 94.3996C236.848 96.7071 235.029 98.5613 231.41 98.493ZM243.157 98.6887C241.296 98.6535 240.266 97.6373 240.302 95.6969L240.511 84.6576L242.976 84.7042L242.772 95.5075C242.757 96.2679 243.118 96.5895 243.695 96.6004C244.167 96.6093 244.511 96.4584 244.777 96.2536L245.294 98.0733C244.762 98.4305 244.128 98.707 243.157 98.6887ZM249.224 98.5148L246.625 84.7731L249.089 84.8197L250.129 90.8987L250.835 95.1877L252.016 90.9606L253.809 84.9089L255.986 84.95L257.549 91.0651L258.596 95.3605L259.463 91.0751L260.705 85.0392L263.197 85.0863L260.054 98.7194L257.562 98.6723L255.777 91.8186L254.847 88.2861L253.811 91.7814L251.741 98.5623L249.224 98.5148ZM251.594 82.7948L251.632 80.7757L262.409 80.9794L262.371 82.9984L251.594 82.7948ZM260.097 78.3947L260.155 75.3005L262.515 75.3451L262.457 78.4393L260.097 78.3947ZM273.318 99.2061C271.01 99.1625 269.227 97.7648 268.309 96.3572L268.262 98.8745L265.902 98.8299L266.16 85.1422L268.625 85.1888L268.448 94.5499C269.212 95.7972 270.711 96.9796 272.336 97.0104C274.041 97.0426 275.105 96.2757 275.147 94.0207L275.312 85.3151L277.776 85.3617L277.597 94.8539C277.543 97.7383 275.914 99.2551 273.318 99.2061ZM284.609 94.1995C283.965 93.5578 283.665 92.8176 283.68 91.9785C283.714 90.2217 284.989 89.3539 286.185 88.5371C287.248 87.8227 288.23 87.1855 288.253 85.9794C288.275 84.8256 287.402 83.8123 285.514 83.7767C283.731 83.743 282.51 84.5068 281.57 85.6957L280.08 83.9888C281.396 82.3611 283.382 81.4018 285.82 81.4479C289.072 81.5093 291.005 83.3296 290.961 85.6371C290.92 87.8134 289.405 88.8603 288.024 89.7785C286.961 90.5191 285.978 91.1563 285.957 92.2576C285.949 92.6772 286.202 93.1803 286.563 93.5019L284.609 94.1995ZM285.244 99.4839C284.352 99.467 283.632 98.6927 283.649 97.8012C283.666 96.9096 284.414 96.1893 285.306 96.2062C286.197 96.223 286.944 96.9716 286.927 97.8631C286.91 98.7546 286.135 99.5007 285.244 99.4839Z" fill="#F9FBFF"/>
<rect x="38.5155" y="128.426" width="335.125" height="51.316" rx="9.42539" transform="rotate(-1.90088 38.5155 128.426)" fill="#FF70B7"/>
<path d="M67.2613 160.974C65.0758 161.046 63.0596 160.158 61.7426 159.12L61.5542 153.443L67.2566 153.253L67.3166 155.062L63.8751 155.176L63.9685 157.99C64.6919 158.569 65.9143 159.032 67.1955 158.989C69.7829 158.903 71.2016 156.945 71.1016 153.931C71.0065 151.067 69.3598 149.185 66.697 149.274C64.9888 149.33 63.3315 150.165 62.2436 151.483L60.8807 149.819C62.3119 148.237 64.4448 147.336 66.6805 147.262C70.7249 147.128 73.3789 149.806 73.5132 153.851C73.6491 157.945 71.1299 160.845 67.2613 160.974ZM62.2994 145.723L62.2352 143.788L70.2989 143.521L70.2389 141.712L72.6002 141.634L72.7244 145.377L62.2994 145.723ZM76.7447 153.467C76.6955 151.985 76.4646 151.087 75.5351 151.118L75.4901 149.761C77.0436 148.075 79.2661 146.844 81.9791 146.754C85.3202 146.644 87.3589 148.211 87.4731 151.652L87.7499 159.992L85.3886 160.07L85.1201 151.982C85.0359 149.444 83.7038 148.709 81.6941 148.776C79.9859 148.832 78.3522 149.616 77.5021 150.524C78.6718 150.913 79.051 151.73 79.0994 153.187L79.3345 160.271L76.9732 160.35L76.7447 153.467ZM103.654 159.766C100.791 159.861 98.8481 158.92 97.4876 157.33L98.913 155.573C100.063 156.893 101.596 157.596 103.555 157.531C105.741 157.459 107.15 155.978 107.089 154.145C107.022 152.135 105.548 150.901 103.388 150.973C101.931 151.021 100.74 151.514 99.6696 152.605L97.8417 152.088L97.5366 142.893L108.137 142.542L108.211 144.752L100.122 145.021L100.3 150.371C101.077 149.541 102.461 148.816 104.094 148.762C106.907 148.668 109.509 150.518 109.623 153.96C109.737 157.401 107.196 159.648 103.654 159.766ZM124.87 159.087C121.379 159.203 119.177 157.264 119.068 153.998L118.797 145.834L121.159 145.756L121.432 153.995C121.499 156.005 122.744 157.146 124.804 157.077C126.864 157.009 128.005 155.789 127.938 153.78L127.543 141.872L129.905 141.794L130.297 153.626C130.406 156.891 128.362 158.971 124.87 159.087ZM117.095 143.904L117.033 142.045L123.188 141.841L123.119 139.781L125.38 139.706L125.51 143.625L117.095 143.904ZM139.21 158.611C135.844 158.723 133.738 156.63 133.622 153.138C133.535 150.526 134.494 148.356 136.013 147.149L133.3 147.239L133.238 145.355L138.362 145.185L138.43 147.22C136.814 148.531 135.898 150.498 135.976 152.834C136.058 155.321 137.209 156.666 139.169 156.601C141.028 156.539 142.092 155.271 142.027 153.312L141.754 145.072L144.115 144.994L144.385 153.133C144.494 156.399 142.526 158.501 139.21 158.611ZM140.144 143.114L140.069 140.853L138.386 140.909L138.332 139.301L142.075 139.177L142.149 141.388L144.937 141.295L144.992 142.953L140.144 143.114ZM151.844 148.56C151.793 147.028 150.868 146.43 149.687 146.469C148.531 146.507 147.647 147.14 147.138 147.71L145.98 146.164C146.854 145.23 148.24 144.555 149.898 144.5C152.008 144.43 154.097 145.216 154.203 148.431L154.513 157.776L152.152 157.855L151.844 148.56ZM161.384 157.548L156.226 144.592L158.687 144.51L163.053 155.556C165.133 153.828 166.459 151.344 166.383 149.058C166.311 146.898 165.048 145.959 163.691 146.004C163.088 146.024 162.341 146.25 161.85 146.593L161.088 144.858C161.8 144.332 162.847 144.071 163.802 144.039C166.189 143.96 168.673 145.311 168.792 148.903C168.917 152.671 166.204 155.779 164.172 157.456L161.384 157.548ZM172.052 157.194L171.617 144.081L173.979 144.003L174.189 150.333L180.158 143.798L182.972 143.704L178.476 148.431C180.643 148.56 182.982 149.312 183.106 153.055L183.231 156.823L180.87 156.902L180.745 153.133C180.661 150.621 179.13 149.943 177.018 149.963L174.272 152.845L174.414 157.116L172.052 157.194ZM190.329 156.814C187.842 156.896 186.261 155.465 186.169 152.702L185.867 143.608L188.229 143.53L188.505 151.87C188.577 154.03 189.607 154.751 191.24 154.696C192.797 154.645 194.218 153.491 194.932 152.285L194.634 143.317L196.996 143.239L197.431 156.352L195.145 156.428L195.066 154.041C194.18 155.404 192.515 156.741 190.329 156.814ZM193.034 141.359L192.959 139.098L191.276 139.154L191.223 137.546L194.966 137.422L195.039 139.632L197.828 139.54L197.883 141.198L193.034 141.359ZM204.857 146.801C204.806 145.268 203.881 144.67 202.7 144.709C201.545 144.748 200.66 145.381 200.151 145.951L198.993 144.405C199.868 143.471 201.253 142.796 202.911 142.741C205.022 142.671 207.11 143.457 207.216 146.672L207.527 156.017L205.165 156.095L204.857 146.801ZM214.671 155.78L212.701 150.237L210.641 150.305L210.581 148.497L214.299 148.373L216.186 153.692C217.66 152.638 219.127 150.627 219.042 148.065C218.951 145.327 217.206 144.278 215.046 144.35C213.237 144.41 211.907 145.259 210.744 146.58L209.382 144.94C210.79 143.41 212.743 142.415 215.054 142.338C218.647 142.219 221.33 144.267 221.451 147.91C221.575 151.653 218.9 154.407 216.881 155.706L214.671 155.78ZM227.304 146.936C225.018 147.012 223.986 146.216 223.915 144.081L223.89 143.327L226.101 143.254L226.123 143.932C226.148 144.686 226.512 145.051 227.442 145.02L230.306 144.925L230.369 146.834L227.304 146.936ZM227.358 154.604C225.222 154.675 224.241 153.903 224.169 151.743L224.144 150.989L226.355 150.916L226.378 151.594C226.403 152.347 226.768 152.738 227.697 152.707L230.561 152.612L230.623 154.496L227.358 154.604ZM236.678 155.326C234.895 155.385 233.858 154.464 233.797 152.605L233.446 142.029L235.807 141.951L236.15 152.301C236.175 153.029 236.536 153.319 237.089 153.3C237.541 153.285 237.863 153.124 238.107 152.915L238.692 154.63C238.202 154.999 237.608 155.295 236.678 155.326ZM245.122 155.046C242.133 155.145 239.762 152.658 239.623 148.463C239.525 145.524 240.57 142.899 242.241 141.737L244 141.679L246.129 143.696L248.17 141.541L248.898 141.516C251.058 141.445 251.937 142.899 251.999 144.783L252.323 154.53L249.961 154.608L249.639 144.887C249.611 144.058 249.318 143.565 248.685 143.435L246.672 145.664L245.667 145.698L243.431 143.483C242.483 144.47 241.91 146.149 241.979 148.234C242.084 151.399 243.55 153.136 245.359 153.076C245.911 153.058 246.358 152.867 246.677 152.63L247.534 154.211C246.971 154.683 246.152 155.012 245.122 155.046ZM241.237 139.784L241.172 137.85L251.497 137.507L251.561 139.441L241.237 139.784ZM261.512 154.552C258.021 154.668 255.819 152.729 255.71 149.463L255.439 141.299L257.801 141.221L258.074 149.46C258.141 151.47 259.386 152.611 261.446 152.542C263.506 152.474 264.647 151.254 264.58 149.245L264.307 141.005L266.668 140.927L266.939 149.091C267.048 152.356 265.004 154.436 261.512 154.552ZM274.293 154.078C272.51 154.137 271.498 153.215 271.437 151.356L271.026 138.996C270.944 136.51 270.704 136.115 268.444 135.436L268.396 134.004L276.535 133.734L276.597 135.593L271.824 135.751C272.801 136.398 273.343 137.562 273.396 139.169L273.79 151.051C273.815 151.78 274.151 152.07 274.704 152.052C275.156 152.037 275.478 151.875 275.722 151.666L276.307 153.382C275.816 153.75 275.223 154.047 274.293 154.078ZM282.729 153.798C279.74 153.897 277.369 151.41 277.23 147.215C277.132 144.276 278.177 141.651 279.848 140.489L281.607 140.431L283.736 142.447L285.777 140.292L286.505 140.268C288.666 140.197 289.544 141.651 289.606 143.535L289.93 153.282L287.569 153.36L287.246 143.639C287.218 142.81 286.925 142.316 286.292 142.187L284.279 144.416L283.274 144.449L281.038 142.235C280.09 143.222 279.517 144.901 279.586 146.986C279.691 150.151 281.157 151.888 282.966 151.828C283.519 151.81 283.965 151.619 284.284 151.382L285.141 152.963C284.578 153.434 283.759 153.763 282.729 153.798ZM298.693 153.318C294.799 153.447 293.001 151.571 292.927 149.335C292.874 147.727 293.769 146.666 295.035 146.172C293.719 145.914 292.654 144.893 292.602 143.335C292.533 141.25 294.067 139.741 296.253 139.668C297.333 139.632 298.4 139.949 299.019 140.406L298.219 142.067C297.961 141.875 297.398 141.592 296.72 141.614C295.74 141.647 294.932 142.302 294.971 143.483C295.006 144.538 295.914 145.363 297.622 145.306L299.38 145.248L299.439 147.006L297.68 147.065C295.872 147.125 295.247 148 295.283 149.081C295.332 150.563 296.744 151.421 298.728 151.355C300.863 151.284 302.112 150.262 302.049 148.353L301.764 139.762L304.125 139.683L304.406 148.149C304.521 151.616 302.134 153.204 298.693 153.318ZM300.668 137.811C298.281 137.891 297.75 137.028 297.696 135.395L297.674 134.742L300.035 134.664L300.049 135.091C300.071 135.744 300.305 135.963 300.807 135.946L305.806 135.78L305.868 137.639L300.668 137.811ZM311.494 152.566L306.336 139.61L308.797 139.528L313.163 150.574C315.243 148.846 316.569 146.362 316.493 144.076C316.421 141.916 315.158 140.977 313.801 141.022C313.198 141.042 312.451 141.268 311.96 141.611L311.198 139.876C311.91 139.35 312.957 139.089 313.912 139.057C316.298 138.978 318.783 140.329 318.902 143.921C319.027 147.689 316.314 150.797 314.282 152.474L311.494 152.566ZM325.638 152.373C323.855 152.433 322.843 151.511 322.782 149.652L322.463 140.056C322.364 137.066 323.509 135.192 325.53 133.969L319.979 134.153L319.917 132.294L327.78 132.033L327.843 133.942C325.391 135.08 324.734 137.264 324.825 139.977L325.135 149.347C325.16 150.076 325.496 150.366 326.049 150.348C326.501 150.333 326.823 150.171 327.067 149.962L327.652 151.678C327.161 152.046 326.568 152.343 325.638 152.373ZM332.885 151.856L327.727 138.9L330.189 138.818L334.554 149.865C336.635 148.136 337.96 145.652 337.885 143.366C337.813 141.206 336.549 140.267 335.193 140.312C334.59 140.332 333.843 140.558 333.352 140.901L332.59 139.166C333.302 138.64 334.349 138.379 335.304 138.347C337.69 138.268 340.174 139.619 340.294 143.211C340.419 146.979 337.705 150.087 335.674 151.764L332.885 151.856ZM346.41 146.629C345.762 146.047 345.437 145.354 345.411 144.55C345.355 142.867 346.532 141.973 347.636 141.131C348.618 140.395 349.526 139.736 349.488 138.58C349.451 137.475 348.565 136.549 346.757 136.609C345.048 136.665 343.918 137.457 343.077 138.642L341.567 137.083C342.745 135.459 344.597 134.442 346.934 134.365C350.049 134.261 351.989 135.907 352.063 138.118C352.132 140.203 350.734 141.28 349.458 142.228C348.477 142.99 347.569 143.648 347.604 144.704C347.617 145.105 347.884 145.574 348.246 145.864L346.41 146.629ZM347.281 151.655C346.427 151.684 345.7 150.978 345.671 150.124C345.643 149.27 346.323 148.543 347.177 148.515C348.031 148.487 348.783 149.166 348.811 150.02C348.84 150.874 348.135 151.627 347.281 151.655Z" fill="#F9FBFF"/>
<circle cx="344.755" cy="87.7549" r="29.7549" fill="#BCDAFF"/>
<path d="M323.411 78.3321C323.411 79.1622 323.232 80.7481 322.823 81.061C322.611 81.2233 322.32 81.2904 322.042 81.2216C321.764 81.1528 321.489 80.9199 321.33 80.705C321.064 80.3444 321.103 79.7967 321.156 79.2563C321.196 78.8458 321.581 78.573 321.932 78.335C322.288 78.0944 322.818 78.2265 323.273 78.3235C323.689 78.4121 323.933 78.7961 324.077 79.1692C324.149 79.3542 324.126 79.559 324.01 79.7923C323.66 80.2882 323.253 80.6909 322.894 80.9323C322.702 81.0417 322.489 81.1245 321.846 81.2099" stroke="#131E4D" stroke-width="3.337" stroke-linecap="round"/>
<path d="M348.743 83.207C348.696 83.0105 348.54 81.993 348.625 80.9995C348.658 80.6163 348.88 80.5114 349.228 80.4427C350.086 80.2735 350.849 80.4308 351.23 80.6929C351.624 80.9634 351.656 81.8583 351.597 82.7201C351.575 83.0415 351.318 83.0853 351.048 83.1133C350.441 83.1762 349.922 83.0838 349.481 82.8523C348.772 82.4805 348.33 81.925 348.174 81.5555C348.093 81.364 348.136 81.1223 348.285 80.9442C348.435 80.766 348.723 80.648 348.977 80.5872C349.23 80.5264 349.44 80.5264 349.666 80.6711C350.786 81.3869 350.761 82.7948 350.674 83.5415C350.576 83.8196 350.367 83.8934 350.145 83.9314C349.923 83.9694 349.694 83.9694 349.459 83.9694" stroke="#131E4D" stroke-width="3.337" stroke-linecap="round"/>
<path d="M339.149 87.5149C339.149 87.5318 338.474 87.5489 336.939 87.6487C335.039 87.7722 332.231 88.6233 329.338 89.468C328.212 89.7826 327.78 89.8657 327.156 89.9127C326.532 89.9598 325.728 89.9682 324.899 89.9769" stroke="#131E4D" stroke-width="3.337" stroke-linecap="round"/>
<path d="M355.079 69.5244C355.091 69.5244 356.457 69.5244 358.724 69.5465C361.304 69.5715 363.414 70.9627 364.121 71.6589C365.255 72.7735 365.233 73.6761 365.374 74.9427C365.516 76.2221 365.284 77.2763 364.99 77.7543C364.372 78.761 362.505 78.5772 361.093 78.869C360.619 80.3222 360.717 81.6261 360.837 83.5331C360.904 84.2542 361.021 85.3479 361.141 86.6858" stroke="#131E4D" stroke-width="3.337" stroke-linecap="round"/>
<path d="M361.374 91.9302C361.379 91.9302 361.384 91.9302 361.393 92.0354C361.401 92.1405 361.412 92.3509 361.453 92.4945C361.494 92.638 361.564 92.7084 361.72 92.5291" stroke="#131E4D" stroke-width="3.337" stroke-linecap="round"/>
<circle cx="29.7549" cy="29.7549" r="29.7549" fill="#5372FE"/>
<path d="M19.2586 47.2829C19.8582 47.1912 21.3645 46.8013 24.1372 45.1719C25.9362 44.1147 28.7297 44.6552 30.9788 45.6661C31.7022 46.1056 32.5133 46.716 33.2088 47.3839C33.9043 48.0519 34.4595 48.7589 35.1515 49.7293" stroke="#131E4D" stroke-width="3.337" stroke-linecap="round"/>
<path d="M11.2977 40.1941H16.3975" stroke="#131E4D" stroke-width="3.337" stroke-linecap="round"/>
<path d="M40.0236 44.0107C41.3307 44.0107 43.6267 44.2905 44.8929 44.7316C45.1261 44.8298 45.3043 44.9236 45.4854 45.0042C45.6665 45.0847 45.8452 45.149 46.1866 45.2771" stroke="#131E4D" stroke-width="3.337" stroke-linecap="round"/>
<path d="M51.287 31.7363V36.7877" stroke="#131E4D" stroke-width="3.337" stroke-linecap="round"/>
<path d="M45.6846 29.0649V36.3143" stroke="#131E4D" stroke-width="3.337" stroke-linecap="round"/>
</svg>
