<svg width="480" height="480" viewBox="0 0 480 480" fill="none" xmlns="http://www.w3.org/2000/svg">
<mask id="mask0_271_983" style="mask-type:alpha" maskUnits="userSpaceOnUse" x="0" y="0" width="480" height="480">
<rect width="480" height="480" fill="#D9D9D9"/>
</mask>
<g mask="url(#mask0_271_983)">
<path d="M180 420C158 420 139.167 412.167 123.5 396.5C107.833 380.833 100 362 100 340V176.5C88.3333 172.167 78.75 164.917 71.25 154.75C63.75 144.583 60 133 60 120C60 103.333 65.8333 89.1667 77.5 77.5C89.1667 65.8333 103.333 60 120 60C136.667 60 150.833 65.8333 162.5 77.5C174.167 89.1667 180 103.333 180 120C180 133 176.25 144.583 168.75 154.75C161.25 164.917 151.667 172.167 140 176.5V340C140 351 143.917 360.417 151.75 368.25C159.583 376.083 169 380 180 380C191 380 200.417 376.083 208.25 368.25C216.083 360.417 220 351 220 340V140C220 118 227.833 99.1667 243.5 83.5C259.167 67.8333 278 60 300 60C322 60 340.833 67.8333 356.5 83.5C372.167 99.1667 380 118 380 140V303.5C391.667 307.833 401.25 315.083 408.75 325.25C416.25 335.417 420 347 420 360C420 376.667 414.167 390.833 402.5 402.5C390.833 414.167 376.667 420 360 420C343.333 420 329.167 414.167 317.5 402.5C305.833 390.833 300 376.667 300 360C300 347 303.75 335.333 311.25 325C318.75 314.667 328.333 307.5 340 303.5V140C340 129 336.083 119.583 328.25 111.75C320.417 103.917 311 100 300 100C289 100 279.583 103.917 271.75 111.75C263.917 119.583 260 129 260 140V340C260 362 252.167 380.833 236.5 396.5C220.833 412.167 202 420 180 420ZM120 140C125.667 140 130.417 138.083 134.25 134.25C138.083 130.417 140 125.667 140 120C140 114.333 138.083 109.583 134.25 105.75C130.417 101.917 125.667 100 120 100C114.333 100 109.583 101.917 105.75 105.75C101.917 109.583 100 114.333 100 120C100 125.667 101.917 130.417 105.75 134.25C109.583 138.083 114.333 140 120 140ZM360 380C365.667 380 370.417 378.083 374.25 374.25C378.083 370.417 380 365.667 380 360C380 354.333 378.083 349.583 374.25 345.75C370.417 341.917 365.667 340 360 340C354.333 340 349.583 341.917 345.75 345.75C341.917 349.583 340 354.333 340 360C340 365.667 341.917 370.417 345.75 374.25C349.583 378.083 354.333 380 360 380Z" fill="#F9FBFF"/>
</g>
</svg>
