<svg width="176" height="32" viewBox="0 0 176 32" fill="none" xmlns="http://www.w3.org/2000/svg">
<line x1="36" y1="16" x2="44" y2="16" stroke="#E8F2FE" stroke-width="2" stroke-linecap="round"/>
<line x1="84" y1="16" x2="92" y2="16" stroke="#E8F2FE" stroke-width="2" stroke-linecap="round"/>
<line x1="132" y1="16" x2="140" y2="16" stroke="#E8F2FE" stroke-width="2" stroke-linecap="round"/>
<rect width="32" height="32" rx="16" fill="#C5D0DD"/>
<mask id="mask0_272_1232" style="mask-type:alpha" maskUnits="userSpaceOnUse" x="6" y="6" width="20" height="20">
<rect x="6" y="6" width="20" height="20" fill="#D9D9D9"/>
</mask>
<g mask="url(#mask0_272_1232)">
<path d="M13.958 20.9999L9.20801 16.2499L10.3955 15.0624L13.958 18.6249L21.6038 10.9791L22.7913 12.1666L13.958 20.9999Z" fill="#F9FBFF"/>
</g>
<rect x="48" width="32" height="32" rx="16" fill="#5372FE"/>
<path d="M60.5369 18.712C64.1629 15.968 65.5769 14.75 65.5769 13.406C65.5769 12.426 64.7369 11.978 63.8829 11.978C62.7909 11.978 61.9509 12.426 61.3629 13.098L60.4109 12.02C61.2369 11.026 62.5529 10.522 63.8549 10.522C65.6609 10.522 67.2429 11.544 67.2429 13.406C67.2429 15.128 65.6609 16.668 63.1549 18.558H67.2989V20H60.5369V18.712Z" fill="#F9FBFF"/>
<rect x="96" width="32" height="32" rx="16" fill="#E8F2FE"/>
<path d="M111.844 20.168C110.178 20.168 108.946 19.496 108.316 18.656L109.198 17.578C109.8 18.278 110.794 18.712 111.788 18.712C113.02 18.712 113.734 18.152 113.734 17.284C113.734 16.36 112.992 15.968 111.662 15.968C111.27 15.968 110.724 15.968 110.584 15.982V14.512C110.752 14.526 111.298 14.526 111.662 14.526C112.754 14.526 113.58 14.148 113.58 13.294C113.58 12.426 112.74 11.978 111.69 11.978C110.738 11.978 109.954 12.342 109.282 13.014L108.442 11.992C109.156 11.152 110.29 10.522 111.844 10.522C113.86 10.522 115.218 11.474 115.218 13.042C115.218 14.288 114.154 15.016 113.188 15.184C114.098 15.268 115.358 16.01 115.358 17.452C115.358 19.034 114 20.168 111.844 20.168Z" fill="#5372FE"/>
<rect x="144" width="32" height="32" rx="16" fill="#E8F2FE"/>
<path d="M160.783 20V17.886H156.331V16.57L160.167 10.662H162.421V16.444H163.667V17.886H162.421V20H160.783ZM160.783 12.132L157.941 16.444H160.783V12.132Z" fill="#5372FE"/>
</svg>
