<svg width="611" height="59" viewBox="0 0 611 59" fill="none" xmlns="http://www.w3.org/2000/svg">
<line x1="60" y1="16" x2="184" y2="16" stroke="#E8F2FE" stroke-width="2" stroke-linecap="round"/>
<line x1="232" y1="16" x2="356" y2="16" stroke="#E8F2FE" stroke-width="2" stroke-linecap="round"/>
<line x1="404" y1="16" x2="528" y2="16" stroke="#E8F2FE" stroke-width="2" stroke-linecap="round"/>
<rect x="20.5" width="32" height="32" rx="16" fill="#C5D0DD"/>
<mask id="mask0_271_146" style="mask-type:alpha" maskUnits="userSpaceOnUse" x="26" y="6" width="21" height="20">
<rect x="26.5" y="6" width="20" height="20" fill="#D9D9D9"/>
</mask>
<g mask="url(#mask0_271_146)">
<path d="M34.458 21L29.708 16.25L30.8955 15.0625L34.458 18.625L42.1038 10.9791L43.2913 12.1666L34.458 21Z" fill="#F9FBFF"/>
</g>
<path d="M4.05899 51.182C2.12699 51.182 0.950992 49.978 0.950992 48.074C0.950992 46.73 1.46899 45.582 2.32299 44.91H0.852992V43.692H3.86299V45.022C2.99499 45.736 2.49099 46.744 2.49099 47.92C2.49099 49.194 3.07899 49.88 4.07299 49.88C5.02499 49.88 5.59899 49.264 5.59899 48.284V43.692H7.13899V48.228C7.13899 50.048 5.96299 51.182 4.05899 51.182ZM4.84868 42.614V41.34H3.91068V40.304H6.17868V41.55H7.69068V42.614H4.84868ZM12.0167 51.168C10.7847 51.168 9.67868 50.636 8.92268 50.006V46.828H12.1707V48.004H10.3787V49.32C10.7567 49.642 11.3727 49.88 12.0307 49.88C13.3607 49.88 14.2007 48.928 14.2007 47.29C14.2007 45.82 13.3187 44.826 11.9327 44.826C10.9947 44.826 10.0707 45.26 9.44068 45.932L8.61468 44.826C9.44068 43.986 10.7007 43.524 11.9607 43.524C14.2427 43.524 15.7687 45.064 15.7687 47.29C15.7687 49.586 14.2147 51.168 12.0167 51.168ZM21.4938 51.112C20.2198 51.112 19.2958 50.384 18.7918 49.642V51H17.3078V43.692H18.8478V48.522C19.2538 49.166 19.9958 49.768 20.8358 49.768C21.6898 49.768 22.1938 49.362 22.1938 48.228V43.692H23.7338V48.76C23.7338 50.258 22.8798 51.112 21.4938 51.112ZM21.5759 54.626C20.3439 54.626 19.6439 53.926 19.6019 52.988H18.9999V51.938H21.0019V52.862C21.0019 53.198 21.2119 53.45 21.5759 53.45C21.9259 53.45 22.1359 53.198 22.1359 52.862V51.938H23.5919V52.932C23.5919 53.898 22.8219 54.626 21.5759 54.626ZM30.0987 46.422C30.0987 45.232 29.4127 44.826 28.3067 44.826C27.4247 44.826 26.5287 45.176 25.9127 45.834L25.2687 44.784C25.9827 44 27.2427 43.524 28.5587 43.524C30.1547 43.524 31.6107 44.224 31.6107 46.24V51H30.0987V48.27C29.7487 47.766 29.0627 47.5 28.3627 47.5C27.4807 47.5 26.8227 47.962 26.8227 48.718C26.8227 49.432 27.3547 49.852 27.9847 49.852C28.2367 49.852 28.5307 49.824 28.8247 49.726L28.9087 50.93C28.5307 51.084 28.1527 51.126 27.7887 51.126C26.3747 51.126 25.2827 50.384 25.2827 48.774C25.2827 47.108 26.5707 46.422 27.7467 46.422C28.7407 46.422 29.5807 46.744 30.0987 47.346V46.422ZM34.5713 51L33.0173 43.692H34.5713L35.1173 46.66L35.5373 48.914L36.1113 46.66L36.8953 43.692H38.2673L39.0513 46.66L39.6253 48.914L40.0453 46.66L40.5913 43.692H42.1453L40.5913 51H39.0233L38.0853 47.57L37.5813 45.764L37.0913 47.57L36.1393 51H34.5713ZM35.7308 42.628V41.41H38.2228V40.444H39.5528V41.41H40.1688V40.444H41.6388V42.628H35.7308ZM39.4828 39.59V38.456H38.5588V37.546H40.7288V38.61H42.3248V39.59H39.4828ZM45.7828 51.112C44.3968 51.112 43.5428 50.258 43.5428 48.76V43.692H45.0828V48.228C45.0828 49.362 45.5868 49.768 46.4408 49.768C47.2808 49.768 48.0228 49.166 48.4288 48.522V43.692H49.9688V51H48.4848V49.642C47.9808 50.384 47.0568 51.112 45.7828 51.112ZM52.8057 53.94C52.1617 53.52 51.7697 52.75 51.7277 51.882H53.0857C53.1277 52.316 53.2677 52.624 53.5337 52.848L54.5417 51.882H54.9057L55.9137 52.848H56.0117C56.3477 52.848 56.5157 52.666 56.5157 52.288V51.882H57.8457V52.344C57.8457 53.45 57.3837 53.94 56.2917 53.94H55.6617L54.7237 53.086L53.7717 53.94H52.8057ZM53.8557 51L52.9317 48.004H51.7557V46.828H54.0237L54.8917 49.684C55.5357 49.236 56.3897 48.242 56.3897 46.842C56.3897 45.4 55.4937 44.826 54.3597 44.826C53.3937 44.826 52.6657 45.26 51.9797 45.974L51.1537 44.868C52.0217 44 53.1557 43.524 54.4017 43.524C55.2277 43.524 55.9697 43.72 56.5297 44.112L58.0277 43.09L58.7557 44.126L57.4537 45.036C57.7897 45.498 57.9577 46.1 57.9577 46.786C57.9577 48.886 56.3897 50.37 55.2977 51H53.8557ZM61.9566 45.918C61.9566 45.162 61.5226 44.798 60.8786 44.798C60.2626 44.798 59.7726 45.134 59.4926 45.4L58.7926 44.35C59.3386 43.86 60.1366 43.524 61.0746 43.524C62.2786 43.524 63.4966 43.986 63.4966 45.904V51H61.9566V45.918ZM67.6441 51.112C66.2581 51.112 65.4041 50.258 65.4041 48.76V43.692H66.9441V48.228C66.9441 49.362 67.4481 49.768 68.3021 49.768C69.1421 49.768 69.8841 49.166 70.2901 48.522V43.692H71.8301V51H70.3461V49.642C69.8421 50.384 68.9181 51.112 67.6441 51.112Z" fill="#131E4D"/>
<rect x="191.5" width="32" height="32" rx="16" fill="#5372FE"/>
<path d="M204.037 18.712C207.663 15.968 209.077 14.75 209.077 13.406C209.077 12.426 208.237 11.978 207.383 11.978C206.291 11.978 205.451 12.426 204.863 13.098L203.911 12.02C204.737 11.026 206.053 10.522 207.355 10.522C209.161 10.522 210.743 11.544 210.743 13.406C210.743 15.128 209.161 16.668 206.655 18.558H210.799V20H204.037V18.712Z" fill="#F9FBFF"/>
<path d="M173.196 51.168C172.118 51.168 171.53 50.608 171.53 49.488V43.692H173.07V49.334C173.07 49.712 173.238 49.866 173.532 49.866C173.756 49.866 173.924 49.796 174.064 49.698L174.372 50.832C174.078 51.028 173.728 51.168 173.196 51.168ZM179.846 46.422C179.846 45.232 179.16 44.826 178.054 44.826C177.172 44.826 176.276 45.176 175.66 45.834L175.016 44.784C175.73 44 176.99 43.524 178.306 43.524C178.978 43.524 179.566 43.706 180.056 44.056L181.484 43.09L182.212 44.126L180.98 44.98C181.232 45.316 181.358 45.666 181.358 46.24V51H179.846V48.27C179.496 47.766 178.81 47.5 178.11 47.5C177.228 47.5 176.57 47.962 176.57 48.718C176.57 49.432 177.102 49.852 177.732 49.852C177.984 49.852 178.278 49.824 178.572 49.726L178.656 50.93C178.278 51.084 177.9 51.126 177.536 51.126C176.122 51.126 175.03 50.384 175.03 48.774C175.03 47.108 176.318 46.422 177.494 46.422C178.488 46.422 179.328 46.744 179.846 47.346V46.422ZM179.205 42.614V41.34H178.267V40.304H180.535V41.55H182.047V42.614H179.205ZM185.563 51.112C184.177 51.112 183.323 50.258 183.323 48.76V43.692H184.863V48.228C184.863 49.362 185.367 49.768 186.221 49.768C187.061 49.768 187.803 49.166 188.209 48.522V43.692H189.749V51H188.265V49.642C187.761 50.384 186.837 51.112 185.563 51.112ZM196.702 46.394C196.702 45.26 196.198 44.854 195.414 44.854C194.476 44.854 193.72 45.47 193.3 46.114V51H191.76V43.692H193.244V44.98C193.748 44.238 194.672 43.524 195.974 43.524C197.374 43.524 198.242 44.364 198.242 45.862V51H196.702V46.394ZM202.38 45.918C202.38 45.162 201.946 44.798 201.302 44.798C200.686 44.798 200.196 45.134 199.916 45.4L199.216 44.35C199.762 43.86 200.56 43.524 201.498 43.524C202.702 43.524 203.92 43.986 203.92 45.904V51H202.38V45.918ZM207.689 51L205.085 43.692H206.681L208.823 49.74C209.929 48.872 210.629 47.556 210.629 46.38C210.629 45.26 209.985 44.798 209.327 44.798C208.977 44.798 208.571 44.924 208.347 45.078L207.899 43.93C208.305 43.65 208.879 43.524 209.439 43.524C210.797 43.524 212.197 44.308 212.197 46.324C212.197 48.41 210.629 50.132 209.523 51H207.689ZM216.711 51.168C215.479 51.168 214.373 50.636 213.617 50.006V46.828H216.865V48.004H215.073V49.32C215.451 49.642 216.067 49.88 216.725 49.88C218.055 49.88 218.895 48.928 218.895 47.29C218.895 45.82 218.013 44.826 216.627 44.826C215.689 44.826 214.765 45.26 214.135 45.932L213.309 44.826C214.135 43.986 215.395 43.524 216.655 43.524C218.937 43.524 220.463 45.064 220.463 47.29C220.463 49.586 218.909 51.168 216.711 51.168ZM224.186 45.918C224.186 45.162 223.752 44.798 223.108 44.798C222.492 44.798 222.002 45.134 221.722 45.4L221.022 44.35C221.568 43.86 222.366 43.524 223.304 43.524C224.508 43.524 225.726 43.986 225.726 45.904V51H224.186V45.918ZM230.574 51.182C228.628 51.182 227.368 49.936 227.368 47.948C227.368 46.702 227.914 45.624 228.838 44.91H227.368V43.692H230.378V45.022C229.51 45.722 228.908 46.73 228.908 47.892C228.908 49.18 229.566 49.88 230.574 49.88C231.582 49.88 232.24 49.18 232.24 47.892C232.24 47.136 231.96 46.31 231.372 45.498L231.008 44.994L233.402 43.216L234.242 44.308L232.842 45.288C233.276 45.806 233.78 46.632 233.78 47.948C233.78 49.936 232.52 51.182 230.574 51.182ZM227.613 42.628V41.368H232.051V40.444H233.591V42.628H227.613ZM236.654 51L235.1 43.692H236.654L237.2 46.66L237.62 48.914L238.194 46.66L238.978 43.692H240.35L241.134 46.66L241.708 48.914L242.128 46.66L242.674 43.692H244.228L242.674 51H241.106L240.168 47.57L239.664 45.764L239.174 47.57L238.222 51H236.654Z" fill="#131E4D"/>
<rect x="362" width="32" height="32" rx="16" fill="#E8F2FE"/>
<path d="M377.844 20.168C376.178 20.168 374.946 19.496 374.316 18.656L375.198 17.578C375.8 18.278 376.794 18.712 377.788 18.712C379.02 18.712 379.734 18.152 379.734 17.284C379.734 16.36 378.992 15.968 377.662 15.968C377.27 15.968 376.724 15.968 376.584 15.982V14.512C376.752 14.526 377.298 14.526 377.662 14.526C378.754 14.526 379.58 14.148 379.58 13.294C379.58 12.426 378.74 11.978 377.69 11.978C376.738 11.978 375.954 12.342 375.282 13.014L374.442 11.992C375.156 11.152 376.29 10.522 377.844 10.522C379.86 10.522 381.218 11.474 381.218 13.042C381.218 14.288 380.154 15.016 379.188 15.184C380.098 15.268 381.358 16.01 381.358 17.452C381.358 19.034 380 20.168 377.844 20.168Z" fill="#5372FE"/>
<path d="M332.695 46.422C332.695 45.232 332.009 44.826 330.903 44.826C330.021 44.826 329.125 45.176 328.509 45.834L327.865 44.784C328.579 44 329.839 43.524 331.155 43.524C331.827 43.524 332.415 43.706 332.905 44.056L334.333 43.09L335.061 44.126L333.829 44.98C334.081 45.316 334.207 45.666 334.207 46.24V51H332.695V48.27C332.345 47.766 331.659 47.5 330.959 47.5C330.077 47.5 329.419 47.962 329.419 48.718C329.419 49.432 329.951 49.852 330.581 49.852C330.833 49.852 331.127 49.824 331.421 49.726L331.505 50.93C331.127 51.084 330.749 51.126 330.385 51.126C328.971 51.126 327.879 50.384 327.879 48.774C327.879 47.108 329.167 46.422 330.343 46.422C331.337 46.422 332.177 46.744 332.695 47.346V46.422ZM333.581 42.74C332.727 42.74 332.083 42.208 332.083 41.494C332.083 40.78 332.727 40.248 333.581 40.248C334.435 40.248 335.079 40.78 335.079 41.494C335.079 42.208 334.435 42.74 333.581 42.74ZM333.581 41.998C333.889 41.998 334.099 41.788 334.099 41.494C334.099 41.2 333.889 40.99 333.581 40.99C333.273 40.99 333.063 41.2 333.063 41.494C333.063 41.788 333.273 41.998 333.581 41.998ZM338.413 45.918C338.413 45.162 337.979 44.798 337.335 44.798C336.719 44.798 336.229 45.134 335.949 45.4L335.249 44.35C335.795 43.86 336.593 43.524 337.531 43.524C338.735 43.524 339.953 43.986 339.953 45.904V51H338.413V45.918ZM344.506 51.168C343.246 51.168 342.112 50.748 341.356 50.048L342.07 48.9C342.588 49.432 343.596 49.894 344.534 49.894C345.486 49.894 345.962 49.544 345.962 49.012C345.962 48.452 345.332 48.214 344.17 47.962C342.742 47.654 341.58 47.136 341.58 45.792C341.58 44.518 342.616 43.524 344.436 43.524C345.654 43.524 346.592 43.958 347.25 44.546L346.592 45.68C346.158 45.176 345.346 44.812 344.45 44.812C343.638 44.812 343.092 45.106 343.092 45.596C343.092 46.128 343.764 46.352 344.856 46.618C346.06 46.912 347.474 47.332 347.474 48.872C347.474 50.202 346.424 51.168 344.506 51.168ZM351.21 51.168C349.824 51.168 348.816 50.496 348.382 49.852L349.446 48.984C349.852 49.544 350.44 49.866 351.112 49.866C352.316 49.866 353.128 48.858 353.128 47.346C353.128 45.82 352.288 44.826 351.028 44.826C350.342 44.826 349.726 45.12 349.32 45.694L348.284 44.826C348.746 44.196 349.726 43.524 351.126 43.524C353.31 43.524 354.696 45.134 354.696 47.36C354.696 49.558 353.352 51.168 351.21 51.168ZM358.066 51L357.142 48.004H355.966V46.828H358.234L359.102 49.684C359.746 49.236 360.6 48.242 360.6 46.842C360.6 45.4 359.704 44.826 358.57 44.826C357.604 44.826 356.876 45.26 356.19 45.974L355.364 44.868C356.232 44 357.366 43.524 358.612 43.524C360.656 43.524 362.168 44.728 362.168 46.786C362.168 48.886 360.6 50.37 359.508 51H358.066ZM365.708 51.168C364.63 51.168 364.042 50.608 364.042 49.488V43.692H365.582V49.334C365.582 49.712 365.75 49.866 366.044 49.866C366.268 49.866 366.436 49.796 366.576 49.698L366.884 50.832C366.59 51.028 366.24 51.168 365.708 51.168ZM369.306 51.168C368.228 51.168 367.64 50.608 367.64 49.488V43.692H369.18V49.334C369.18 49.712 369.348 49.866 369.642 49.866C369.866 49.866 370.034 49.796 370.174 49.698L370.482 50.832C370.188 51.028 369.838 51.168 369.306 51.168ZM375.953 46.422C375.953 45.232 375.267 44.826 374.161 44.826C373.279 44.826 372.383 45.176 371.767 45.834L371.123 44.784C371.837 44 373.097 43.524 374.413 43.524C376.009 43.524 377.465 44.224 377.465 46.24V51H375.953V48.27C375.603 47.766 374.917 47.5 374.217 47.5C373.335 47.5 372.677 47.962 372.677 48.718C372.677 49.432 373.209 49.852 373.839 49.852C374.091 49.852 374.385 49.824 374.679 49.726L374.763 50.93C374.385 51.084 374.007 51.126 373.643 51.126C372.229 51.126 371.137 50.384 371.137 48.774C371.137 47.108 372.425 46.422 373.601 46.422C374.595 46.422 375.435 46.744 375.953 47.346V46.422ZM381.084 46.394C379.712 46.394 379.124 45.904 379.124 44.63V44.196H380.566V44.574C380.566 44.952 380.748 45.162 381.224 45.162H382.764V46.394H381.084ZM380.944 50.65C379.67 50.65 379.124 50.16 379.124 48.886V48.452H380.566V48.83C380.566 49.208 380.748 49.418 381.224 49.418H382.764V50.65H380.944ZM386.565 51.168C385.179 51.168 384.171 50.496 383.737 49.852L384.801 48.984C385.207 49.544 385.795 49.866 386.467 49.866C387.671 49.866 388.483 48.858 388.483 47.346C388.483 45.82 387.643 44.826 386.383 44.826C385.697 44.826 385.081 45.12 384.675 45.694L383.639 44.826C384.101 44.196 385.081 43.524 386.481 43.524C388.665 43.524 390.051 45.134 390.051 47.36C390.051 49.558 388.707 51.168 386.565 51.168ZM393.729 45.918C393.729 45.162 393.295 44.798 392.651 44.798C392.035 44.798 391.545 45.134 391.265 45.4L390.565 44.35C391.111 43.86 391.909 43.524 392.847 43.524C394.051 43.524 395.269 43.986 395.269 45.904V51H393.729V45.918ZM399.039 51L396.435 43.692H398.031L400.173 49.74C401.279 48.872 401.979 47.556 401.979 46.38C401.979 45.26 401.335 44.798 400.677 44.798C400.327 44.798 399.921 44.924 399.697 45.078L399.249 43.93C399.655 43.65 400.229 43.524 400.789 43.524C402.147 43.524 403.547 44.308 403.547 46.324C403.547 48.41 401.979 50.132 400.873 51H399.039ZM407.011 51.168C405.933 51.168 405.345 50.608 405.345 49.488V43.692H406.885V49.334C406.885 49.712 407.053 49.866 407.347 49.866C407.571 49.866 407.739 49.796 407.879 49.698L408.187 50.832C407.893 51.028 407.543 51.168 407.011 51.168ZM410.609 51.168C409.531 51.168 408.943 50.608 408.943 49.488V43.692H410.483V49.334C410.483 49.712 410.651 49.866 410.945 49.866C411.169 49.866 411.337 49.796 411.477 49.698L411.785 50.832C411.491 51.028 411.141 51.168 410.609 51.168ZM412.804 45.246C412.804 44.14 413.532 43.58 414.61 43.58C415.128 43.58 415.59 43.734 415.87 43.916L415.534 44.938C415.408 44.854 415.226 44.77 415.002 44.77C414.638 44.77 414.344 44.952 414.344 45.47V49.292L415.87 47.234H416.262L417.788 49.278V43.692H419.328V51H417.83L416.094 48.928L414.302 51H412.804V45.246ZM423.534 51.112C422.148 51.112 421.294 50.258 421.294 48.76V43.692H422.834V48.228C422.834 49.362 423.338 49.768 424.192 49.768C425.032 49.768 425.774 49.166 426.18 48.522V43.692H427.72V51H426.236V49.642C425.732 50.384 424.808 51.112 423.534 51.112Z" fill="#131E4D"/>
<rect x="534" width="32" height="32" rx="16" fill="#E8F2FE"/>
<path d="M550.783 20V17.886H546.331V16.57L550.167 10.662H552.421V16.444H553.667V17.886H552.421V20H550.783ZM550.783 12.132L547.941 16.444H550.783V12.132Z" fill="#5372FE"/>
<path d="M495.37 46.394C495.37 45.26 494.866 44.854 494.082 44.854C493.144 44.854 492.388 45.47 491.968 46.114V51H490.428V43.692H491.912V44.98C492.416 44.238 493.34 43.524 494.642 43.524C496.042 43.524 496.91 44.364 496.91 45.862V51H495.37V46.394ZM494.901 42.628C493.459 42.628 493.221 42.096 493.221 41.186V40.78H494.761V41.018C494.761 41.326 494.859 41.424 495.041 41.424H497.855V42.628H494.901ZM499.017 47.36C499.017 46.506 498.905 45.932 498.359 45.96V45.064C499.269 44.21 500.557 43.524 502.125 43.524C504.085 43.524 505.205 44.476 505.205 46.464V51H503.665V46.632C503.665 45.232 502.965 44.826 501.887 44.826C501.019 44.826 500.123 45.19 499.619 45.624C500.361 45.89 500.557 46.38 500.557 47.22V51H499.017V47.36ZM510.41 51.168C508.338 51.168 507.106 49.992 507.106 48.046V43.692H508.646V48.046C508.646 49.194 509.29 49.866 510.424 49.866C511.572 49.866 512.202 49.194 512.202 48.046V47.388H510.158V46.128H512.202V43.692H513.714V46.128H514.652V47.388H513.714V48.046C513.714 49.992 512.496 51.168 510.41 51.168ZM517.51 46.394C516.138 46.394 515.55 45.904 515.55 44.63V44.196H516.992V44.574C516.992 44.952 517.174 45.162 517.65 45.162H519.19V46.394H517.51ZM517.37 50.65C516.096 50.65 515.55 50.16 515.55 48.886V48.452H516.992V48.83C516.992 49.208 517.174 49.418 517.65 49.418H519.19V50.65H517.37ZM522.655 51.168C521.577 51.168 520.989 50.608 520.989 49.488V43.692H522.529V49.334C522.529 49.712 522.697 49.866 522.991 49.866C523.215 49.866 523.383 49.796 523.523 49.698L523.831 50.832C523.537 51.028 523.187 51.168 522.655 51.168ZM526.253 51.168C525.175 51.168 524.587 50.608 524.587 49.488V43.692H526.127V49.334C526.127 49.712 526.295 49.866 526.589 49.866C526.813 49.866 526.981 49.796 527.121 49.698L527.429 50.832C527.135 51.028 526.785 51.168 526.253 51.168ZM532.9 46.422C532.9 45.232 532.214 44.826 531.108 44.826C530.226 44.826 529.33 45.176 528.714 45.834L528.07 44.784C528.784 44 530.044 43.524 531.36 43.524C532.956 43.524 534.412 44.224 534.412 46.24V51H532.9V48.27C532.55 47.766 531.864 47.5 531.164 47.5C530.282 47.5 529.624 47.962 529.624 48.718C529.624 49.432 530.156 49.852 530.786 49.852C531.038 49.852 531.332 49.824 531.626 49.726L531.71 50.93C531.332 51.084 530.954 51.126 530.59 51.126C529.176 51.126 528.084 50.384 528.084 48.774C528.084 47.108 529.372 46.422 530.548 46.422C531.542 46.422 532.382 46.744 532.9 47.346V46.422ZM538.031 46.394C536.659 46.394 536.071 45.904 536.071 44.63V44.196H537.513V44.574C537.513 44.952 537.695 45.162 538.171 45.162H539.711V46.394H538.031ZM537.891 50.65C536.617 50.65 536.071 50.16 536.071 48.886V48.452H537.513V48.83C537.513 49.208 537.695 49.418 538.171 49.418H539.711V50.65H537.891ZM544.493 51.182C542.491 51.182 541.259 50.048 541.259 48.2V43.692H542.799V48.256C542.799 49.278 543.429 49.88 544.493 49.88C545.557 49.88 546.187 49.278 546.187 48.256V41.648H547.727V48.2C547.727 50.048 546.495 51.182 544.493 51.182ZM552.272 51.168C551.012 51.168 549.878 50.748 549.122 50.048L549.836 48.9C550.354 49.432 551.362 49.894 552.3 49.894C553.252 49.894 553.728 49.544 553.728 49.012C553.728 48.452 553.098 48.214 551.936 47.962C550.508 47.654 549.346 47.136 549.346 45.792C549.346 44.518 550.382 43.524 552.202 43.524C553.42 43.524 554.358 43.958 555.016 44.546L554.358 45.68C553.924 45.176 553.112 44.812 552.216 44.812C551.404 44.812 550.858 45.106 550.858 45.596C550.858 46.128 551.53 46.352 552.622 46.618C553.826 46.912 555.24 47.332 555.24 48.872C555.24 50.202 554.19 51.168 552.272 51.168ZM558.43 46.394C557.058 46.394 556.47 45.904 556.47 44.63V44.196H557.912V44.574C557.912 44.952 558.094 45.162 558.57 45.162H560.11V46.394H558.43ZM558.29 50.65C557.016 50.65 556.47 50.16 556.47 48.886V48.452H557.912V48.83C557.912 49.208 558.094 49.418 558.57 49.418H560.11V50.65H558.29ZM566.123 46.422C566.123 45.232 565.437 44.826 564.331 44.826C563.449 44.826 562.553 45.176 561.937 45.834L561.293 44.784C562.007 44 563.267 43.524 564.583 43.524C565.255 43.524 565.843 43.706 566.333 44.056L567.761 43.09L568.489 44.126L567.257 44.98C567.509 45.316 567.635 45.666 567.635 46.24V51H566.123V48.27C565.773 47.766 565.087 47.5 564.387 47.5C563.505 47.5 562.847 47.962 562.847 48.718C562.847 49.432 563.379 49.852 564.009 49.852C564.261 49.852 564.555 49.824 564.849 49.726L564.933 50.93C564.555 51.084 564.177 51.126 563.813 51.126C562.399 51.126 561.307 50.384 561.307 48.774C561.307 47.108 562.595 46.422 563.771 46.422C564.765 46.422 565.605 46.744 566.123 47.346V46.422ZM572.834 51.182C570.832 51.182 569.6 50.048 569.6 48.2V43.692H571.14V48.256C571.14 49.278 571.77 49.88 572.834 49.88C573.898 49.88 574.528 49.278 574.528 48.256V43.692H576.068V48.2C576.068 50.048 574.836 51.182 572.834 51.182ZM578.178 47.36C578.178 46.506 578.066 45.932 577.52 45.96V45.064C578.43 44.21 579.718 43.524 581.286 43.524C583.246 43.524 584.366 44.476 584.366 46.464V51H582.826V46.632C582.826 45.232 582.126 44.826 581.048 44.826C580.18 44.826 579.284 45.19 578.78 45.624C579.522 45.89 579.718 46.38 579.718 47.22V51H578.178V47.36ZM588.506 45.918C588.506 45.162 588.072 44.798 587.428 44.798C586.812 44.798 586.322 45.134 586.042 45.4L585.342 44.35C585.888 43.86 586.686 43.524 587.624 43.524C588.828 43.524 590.046 43.986 590.046 45.904V51H588.506V45.918ZM594.6 51.168C593.34 51.168 592.206 50.748 591.45 50.048L592.164 48.9C592.682 49.432 593.69 49.894 594.628 49.894C595.58 49.894 596.056 49.544 596.056 49.012C596.056 48.452 595.426 48.214 594.264 47.962C592.836 47.654 591.674 47.136 591.674 45.792C591.674 44.518 592.71 43.524 594.53 43.524C595.748 43.524 596.686 43.958 597.344 44.546L596.686 45.68C596.252 45.176 595.44 44.812 594.544 44.812C593.732 44.812 593.186 45.106 593.186 45.596C593.186 46.128 593.858 46.352 594.95 46.618C596.154 46.912 597.568 47.332 597.568 48.872C597.568 50.202 596.518 51.168 594.6 51.168ZM600.87 51.126C599.778 51.126 599.162 50.566 599.162 49.488V47.36C599.162 46.506 599.078 45.932 598.56 45.96V45.064C599.47 44.21 600.8 43.524 602.228 43.524C604.062 43.524 605.168 44.476 605.168 46.464V48.494C605.168 49.488 605.728 49.838 606.4 49.838C607.072 49.838 607.646 49.488 608.038 48.956V43.692H609.578V51H608.066V49.964C607.618 50.65 606.89 51.14 605.896 51.14C604.552 51.14 603.628 50.384 603.628 48.816V46.632C603.628 45.232 602.942 44.826 601.99 44.826C601.234 44.826 600.324 45.204 599.82 45.624C600.534 45.89 600.702 46.394 600.702 47.22V49.166C600.702 49.586 600.856 49.866 601.276 49.866C601.556 49.866 601.822 49.74 601.934 49.642L602.284 50.692C601.99 50.958 601.444 51.126 600.87 51.126ZM606.731 42.39C606.731 41.48 607.137 40.78 608.565 40.78H610.007V41.984H608.761C608.439 41.984 608.271 42.096 608.271 42.404V42.6H606.731V42.39Z" fill="#131E4D"/>
</svg>
